<svg xmlns="http://www.w3.org/2000/svg" width="39.19" height="41.014" viewBox="0 0 39.19 41.014">
  <g id="Group_623" data-name="Group 623" transform="translate(-28.995 -9.609)">
    <path id="Path_114" data-name="Path 114" d="M57.918,15.475c-.47.8-1.023,1.555-1.44,2.392-.143.286-.346.061-.458-.037A13.879,13.879,0,0,0,54.1,16.477a9.491,9.491,0,0,0-6.027-1.349,10.7,10.7,0,0,0-6.3,2.886,13.434,13.434,0,0,0-3.128,4.08,12.883,12.883,0,0,0-1.171,4.227A20.087,20.087,0,0,0,39.36,36.49a25.1,25.1,0,0,0,1.681,3.259c.258.423.008.845-.058,1.236a3.372,3.372,0,0,1-3.146,3.04,8.006,8.006,0,0,0-3.629,1.13c-.2.137-.222.533-.377.693-.15-.019-.323-.336-.41-.441a19.628,19.628,0,0,1-3.969-7.712A19.219,19.219,0,0,1,29,33.167a25.187,25.187,0,0,1,.271-4.637,17.185,17.185,0,0,1,1.472-4.341,19.723,19.723,0,0,1,19.6-11.148A20.1,20.1,0,0,1,57.3,14.978C57.542,15.093,57.832,15.164,57.918,15.475Z" transform="translate(0 -1.971)" fill="#ff4e00"/>
    <path id="Path_115" data-name="Path 115" d="M101.928,31.486a19.594,19.594,0,0,1,3.643,7.564,19.233,19.233,0,0,1,.44,6.227,20.228,20.228,0,0,1-2.9,8.777,12.941,12.941,0,0,1-1.77,2.592,1.688,1.688,0,0,0-.754-.708c-1.572-.4-3.021-1.186-4.621-1.5-.338-.065-.674-.151-1.015-.186A1.987,1.987,0,0,1,93.367,52.6a1,1,0,0,1,.39-.678A19.071,19.071,0,0,0,97.3,46.568a15.356,15.356,0,0,0,1.235-4.276,16.966,16.966,0,0,0,.074-3.976,15.474,15.474,0,0,0-1.565-5.421c-.216-.435-.187-.645.264-.842a6.537,6.537,0,0,1,3.853-.595A5.2,5.2,0,0,0,101.928,31.486Z" transform="translate(-37.902 -12.814)" fill="#ff4e00"/>
    <path id="Path_116" data-name="Path 116" d="M101.86,22.462a7.03,7.03,0,0,0,1.311,1.077,14.756,14.756,0,0,0-3.5,1.7A6.356,6.356,0,0,1,101.86,22.462Z" transform="translate(-41.613 -7.568)" fill="#f16922"/>
    <path id="Path_117" data-name="Path 117" d="M101.1,55.8V54.738A1.222,1.222,0,0,1,101.1,55.8Z" transform="translate(-42.453 -26.572)" fill="#f16922"/>
    <path id="Path_118" data-name="Path 118" d="M57.223,50.551A20.355,20.355,0,0,1,42.31,45.789a21,21,0,0,1-1.7-1.67.669.669,0,0,1-.236-.457c.218-.632.788-.84,1.325-1.06a12.174,12.174,0,0,1,2.956-.725,3.132,3.132,0,0,0,2.773-2.419,3.027,3.027,0,0,0-.315-2.5,23.744,23.744,0,0,1-3.11-9.4A13.163,13.163,0,0,1,45.438,19.6c2-3.578,4.923-6.012,9.114-6.564a9.955,9.955,0,0,1,7.114,1.815,8.657,8.657,0,0,1,.894.664c.325.292.537.213.732-.144a13.268,13.268,0,0,1,1.2-1.875,14.542,14.542,0,0,1,3.6-3.443,4.083,4.083,0,0,1,.872-.447H69.2c.523.238.755.773,1.158,1.137.434.391.844.811,1.241,1.241.439.475.369.719-.266.878a11.608,11.608,0,0,0-4.273,2.1A8.464,8.464,0,0,0,64.9,17.485,11.569,11.569,0,0,1,68.408,15.8a14.988,14.988,0,0,1,5.059-.485c.568.026.758.175.7.7-.108.934-.027,1.879-.2,2.806-.109.592-.189.667-.782.523-.8-.194-1.606-.347-2.411-.509a8.77,8.77,0,0,0-3.545.146c-.076.021-.152.039-.227.061-1.131.336-1.181.456-.749,1.528a18.226,18.226,0,0,1,1.36,5.793,17.158,17.158,0,0,1-3.97,11.726c-.25.326-.514.64-.8.94a1.311,1.311,0,0,0,.7,2.2c2.147.273,4.068,1.258,6.125,1.8a.693.693,0,0,1,.522.338,1.111,1.111,0,0,1-.339.957,20.151,20.151,0,0,1-7.464,5.038A18.744,18.744,0,0,1,57.223,50.551Z" transform="translate(-6.698 0)" fill="#151a22"/>
    <path id="Path_119" data-name="Path 119" d="M54.476,53.574a10.365,10.365,0,0,1,.01-1.521,1.975,1.975,0,0,1,2.657-1.365,5.4,5.4,0,0,1,2.325,1.35A8.249,8.249,0,0,0,63.753,54.2a6.942,6.942,0,0,0,3.233-.6c1.757-.5,3.318-1.506,5.093-1.957.924-.235,1.277-.1,1.552.649a3.168,3.168,0,0,1,0,1.057,7.094,7.094,0,0,1-2.195,4.21,2.708,2.708,0,0,1-1.318.846,4.165,4.165,0,0,1-2.188-.333,11.211,11.211,0,0,0-1.871-.636,1.1,1.1,0,0,1-.854-.68c-.091-.216-.256-.594-.367-.59-.171,0-.148.15-.151.237-.019.55-.257.734-.843.723a7.737,7.737,0,0,0-3.619,1.041,2.917,2.917,0,0,1-3.014.019c-.262-.155-.38-.518-.745-.5-.266-.081-.38-.322-.522-.523A6.766,6.766,0,0,1,54.476,53.574Z" transform="translate(-14.989 -24.131)" fill="#fff"/>
    <path id="Path_120" data-name="Path 120" d="M60.8,24.32c-.7.49-1.344.907-1.954,1.365a10.029,10.029,0,0,0-3.627,4.9,16.623,16.623,0,0,0-.334,1.827c-.048.22-.015.422.31.43a4.892,4.892,0,0,1,2.874,1.287,19.237,19.237,0,0,1,1.837,1.812,3.061,3.061,0,0,1,.313.537c-.792-.486-1.461-.9-2.138-1.309a5.681,5.681,0,0,0-2.445-.89,3.158,3.158,0,0,0-2.512,1.857c-.076.2-.162.393-.261.634C52.126,31.5,55.263,25.363,60.8,24.32Z" transform="translate(-13.993 -8.662)" fill="#3a3a3a"/>
    <path id="Path_121" data-name="Path 121" d="M89.369,60.715a1.359,1.359,0,0,1-1.465-1.33,1.411,1.411,0,1,1,2.821-.084A1.27,1.27,0,0,1,89.369,60.715Z" transform="translate(-34.685 -28.439)" fill="#221f1f"/>
    <path id="Path_122" data-name="Path 122" d="M61.061,59.358c0-.88.548-1.523,1.311-1.459a1.375,1.375,0,0,1,1.4,1.442,1.286,1.286,0,0,1-1.355,1.366A1.183,1.183,0,0,1,61.061,59.358Z" transform="translate(-18.881 -28.431)" fill="#221f1f"/>
    <path id="Path_123" data-name="Path 123" d="M54.51,57.845a8.884,8.884,0,0,0,1.516,3.413c.162.23.315.468.472.7a14.7,14.7,0,0,0,2.45,3.454c1.391,1.612,2.959,3.054,4.447,4.572a.42.42,0,0,1,.182.389C62.835,70,62.1,69.7,61.433,69.291A14.719,14.719,0,0,1,54.6,59.119,5.691,5.691,0,0,1,54.51,57.845Z" transform="translate(-15.022 -28.402)" fill="#3a3a3a"/>
  </g>
</svg>
