<svg xmlns="http://www.w3.org/2000/svg" width="22" height="19" viewBox="0 0 22 19">
    <g>
        <g>
            <path fill="#ff4e00" d="M14.667 44.088a1.644 1.644 0 1 0-1.65-1.644 1.64 1.64 0 0 0 1.65 1.644zm2.75 6.577A4.567 4.567 0 1 0 22 55.233a4.531 4.531 0 0 0-4.583-4.568zm0 7.764a3.2 3.2 0 1 1 3.208-3.2 3.242 3.242 0 0 1-3.208 3.201zm-3.85-9.591h3.85v-1.644h-2.934l-1.741-3.014a1.613 1.613 0 0 0-2.475-.274l-3.392 3.38a1.51 1.51 0 0 0-.458 1.1 1.609 1.609 0 0 0 .733 1.37l3.117 1.827v4.567h1.65v-5.941L9.9 48.656l2.108-2.1zm-8.984 1.827a4.567 4.567 0 1 0 0 9.135 4.567 4.567 0 1 0 0-9.135zm0 7.764a3.2 3.2 0 1 1 0-6.394 3.2 3.2 0 1 1 0 6.394z" transform="translate(0 -40.8) translate(0 40.8) translate(0 -40.8)"/>
        </g>
    </g>
</svg>
