<svg xmlns="http://www.w3.org/2000/svg" width="73.864" height="62.7" viewBox="0 0 73.864 62.7">
    <defs>
        <style>
            .cls-3{fill:#ff4e00}
        </style>
    </defs>
    <g id="ninja" transform="translate(0 -38.75)">
        <path id="Path_237" fill="#91c716" d="M418.6 134.5c.951-7.375 4.58-10.169 11.941-9.219-.835 6.453-3.7 9.391-9.348 9.391a20.967 20.967 0 0 1-2.593-.172z" transform="translate(-358.305 -73.917)"/>
        <path id="Path_238" fill="#fff" d="M69.691 178.776a29.612 29.612 0 0 1-.391 4.824l-.533-.086-2.1.475a123.836 123.836 0 0 1-53.828 0l-2.1-.475-.447.072a29.567 29.567 0 0 1-.389-4.811 30.083 30.083 0 0 1 1.5-9.377l3.01-.835a115.193 115.193 0 0 1 51.422.13l2.348.706a29.609 29.609 0 0 1 1.508 9.377zm-6.28-3.846l1.051-1.829-18.207 4.883 1.829 1.051a11.232 11.232 0 0 0 15.327-4.104zm-31.9 4.105l1.829-1.051-18.211-4.884 1.051 1.829a11.228 11.228 0 0 0 15.326 4.107z" transform="translate(-8.474 -108.683)"/>
        <g id="Group_789" transform="translate(1.801 40.19)">
            <path id="Path_239" d="M70.995 289.25l.533.086a29.908 29.908 0 0 1-59.027-.014l.447-.072 2.1.475a123.836 123.836 0 0 0 53.828 0z" class="cls-3" transform="translate(-12.5 -254.608)"/>
            <path id="Path_240" fill="#3261d8" d="M364.123 97.064a16.576 16.576 0 0 1-.792 4.681c-6.381-1.93-8.786-5.387-7.648-11.206a.157.157 0 0 0 .014-.072 20.61 20.61 0 0 1 .5-2.017c5.376 1.628 7.926 4.321 7.926 8.614z" transform="translate(-306.017 -82.732)"/>
            <path id="Path_241" d="M76.49 67.763l.13.158q.259.67.475 1.34l-2.348-.691a115.194 115.194 0 0 0-51.422-.13l-3.025.835a29.912 29.912 0 0 1 48.426-12.833l.13.029a.157.157 0 0 0-.014.072c-1.142 5.833 1.267 9.29 7.648 11.22z" class="cls-3" transform="translate(-19.176 -48.75)"/>
        </g>
        <path id="Path_242" d="M264.129 222.884a11.232 11.232 0 0 0 15.326-4.105l1.051-1.829-18.206 4.883z" transform="translate(-224.518 -152.532)"/>
        <path id="Path_243" d="M47.251 218.779a11.216 11.216 0 0 0 15.326 4.105l1.829-1.051L46.2 216.95z" transform="translate(-39.545 -152.532)"/>
        <path id="Path_244" d="M62.974 51.714a8.426 8.426 0 0 0-1.685 1.743c-.4-4.321-3.327-7.245-8.9-8.93l-1.368-.418-.4 1.3A31.313 31.313 0 0 0 0 70.107a33.038 33.038 0 0 0 .4 5.041 31.334 31.334 0 0 0 62.268-5.027 31.969 31.969 0 0 0-1.008-7.937q.648.043 1.253.043c3.241 0 5.69-.879 7.49-2.708 1.743-1.757 2.809-4.364 3.27-7.951l.187-1.426-1.426-.187c-4.134-.546-7.227.045-9.46 1.759zM52.863 48.3a.183.183 0 0 0 .014-.086V48.2l.086-.432c3.831 1.44 5.488 3.515 5.488 6.755a13.088 13.088 0 0 1-.346 2.823c-4.594-1.746-6.121-4.451-5.242-9.046zM14.49 47.148a28.447 28.447 0 0 1 35.4 1.412 9.907 9.907 0 0 0 1.368 7.332A9.023 9.023 0 0 0 52.8 57.6a117.057 117.057 0 0 0-21.14-1.983h-.3a117.3 117.3 0 0 0-25.74 2.866l-.32.087a28.37 28.37 0 0 1 9.19-11.422zM49.852 91.7A28.456 28.456 0 0 1 3.63 76.618l.418.1a125.523 125.523 0 0 0 27.223 3 125.425 125.425 0 0 0 27.223-3l.533-.115A28.588 28.588 0 0 1 49.852 91.7zm9.723-18.178l-1.7.374a122.312 122.312 0 0 1-26.6 2.924A122.312 122.312 0 0 1 4.667 73.9l-1.6-.36a27.788 27.788 0 0 1-.216-3.443 28.567 28.567 0 0 1 1.2-8.2l2.218-.619a113.816 113.816 0 0 1 50.7.13l1.57.475a28.281 28.281 0 0 1 1.21 8.225 24.755 24.755 0 0 1-.174 3.413zm3.313-14.2c-.3 0-.6-.014-.936-.029.994-4.984 3.543-6.943 8.614-6.64-.937 4.721-3.227 6.666-7.678 6.666z"/>
    </g>
</svg>
