<svg xmlns="http://www.w3.org/2000/svg" width="15" height="15" viewBox="0 0 15 15">
    <g>
        <path fill="#ff4e00" d="M7.5 0a7.5 7.5 0 0 0 0 15 1.282 1.282 0 0 0 1.25-1.25 1.07 1.07 0 0 0-.333-.833 1.481 1.481 0 0 1-.333-.833 1.282 1.282 0 0 1 1.25-1.25h1.5A4.126 4.126 0 0 0 15 6.667C15 3 11.667 0 7.5 0zM2.917 7.5a1.282 1.282 0 0 1-1.25-1.25A1.282 1.282 0 0 1 2.917 5a1.282 1.282 0 0 1 1.25 1.25 1.282 1.282 0 0 1-1.25 1.25zm2.5-3.333a1.282 1.282 0 0 1-1.25-1.25 1.282 1.282 0 0 1 1.25-1.25 1.282 1.282 0 0 1 1.25 1.25 1.282 1.282 0 0 1-1.25 1.25zm4.167 0a1.282 1.282 0 0 1-1.25-1.25 1.25 1.25 0 0 1 2.5 0 1.282 1.282 0 0 1-1.251 1.25zm2.5 3.333a1.282 1.282 0 0 1-1.25-1.25 1.25 1.25 0 0 1 2.5 0 1.282 1.282 0 0 1-1.251 1.25z"/>
    </g>
</svg>
